<?xml version="1.0" standalone="no"?><!DOCTYPE svg PUBLIC "-//W3C//DTD SVG 1.1//EN" "http://www.w3.org/Graphics/SVG/1.1/DTD/svg11.dtd"><svg t="1740927957608" class="icon" viewBox="0 0 1024 1024" version="1.1" xmlns="http://www.w3.org/2000/svg" p-id="1605" xmlns:xlink="http://www.w3.org/1999/xlink" width="200" height="200"><path d="M588 80.4c-191.9 0-201.3 258.7-201.3 258.7-182.3 127.1-177.9 324-177.9 428.4 0 26.9-48.5 54.3-48.5 101.1s46.3 68.7 76.8 68.7h541.6c30.5 0 76.8-21.9 76.8-68.7S807 794.4 807 767.5c0-104.4 4.3-301.3-177.9-428.5 7.8-0.5 129.3 6.1 129.3-90.3 0-70.1-98.7-73.3-98.7-73.3s18.5-95-71.7-95z" fill="#FFEE91" p-id="1606"></path><path d="M563.4 339.1C687.7 463.4 718 591.5 718 727.1c0 60.6 42.1 121.3-40.4 121.3H237c-19.1 0-44.3-8.7-60.5-26.6-9 13.4-16.3 28.6-16.3 46.8 0 46.8 46.3 68.7 76.8 68.7h541.6c30.5 0 76.8-21.9 76.8-68.7S807 794.4 807 767.5c0-104.4 4.3-301.3-177.9-428.5h-65.7z" fill="#F9D151" p-id="1607"></path><path d="M322.3 371c-7.1-0.3-14 2.6-18.9 7.9-122.9 131.3-119 299.3-119 388.6 0-1.1-6.5 11.4-19.4 28.5-12.9 17-29.1 40.8-29.1 72.6 0 31.4 16.7 56.6 36.8 71.4 20.1 14.8 43.2 21.5 64.2 21.5h541.6c21.1 0 44.1-6.7 64.2-21.5s36.8-40 36.8-71.4c0-31.8-16.3-55.6-29.1-72.6-12.9-17-19.4-29.6-19.4-28.5 0-85.6 3.7-243.1-104-371.7-8.3-10.5-23.5-12.4-34.1-4.1-10.5 8.3-12.4 23.5-4.1 34.1 0.3 0.4 0.6 0.8 1 1.1 94.8 113.3 92.7 253.9 92.7 340.6 0 28 17.7 42.6 29.1 57.7 11.4 15.1 19.4 28.3 19.4 43.4 0 15.4-6.5 24.5-17.1 32.4-10.6 7.8-26 12.1-35.5 12.1H236.8c-9.5 0-24.8-4.3-35.5-12.1s-17.1-17-17.1-32.4c0-15 8-28.3 19.4-43.4 11.4-15.1 29.1-29.7 29.1-57.7 0-90.5-2.5-239.7 105.9-355.5 9.3-9.7 9-25-0.7-34.3-4-4.1-9.6-6.5-15.6-6.7z" fill="#444852" p-id="1608"></path><path d="M588 80.4c-15.2 0-21 1.8-34 4.8 54.8 19.1 12.5 119.2 28.6 135.3 25 25 98.7 15.8 98.7 56.2 0 59.7-100 61.9-107.8 62.4h72.8c7.8-0.5 112.3 6.1 112.3-90.3 0-70.1-98.7-73.3-98.7-73.3s18.3-95.1-71.9-95.1z" fill="#F9D151" p-id="1609"></path><path d="M588 56.1c-53.4 0-96.6 18.7-128.3 46.4-80.3 74.3-92.9 178-97.2 235.7-2.5 33.5 48.5 35.4 48.4 1.8 4.7-61.6 23-149.5 80.7-200.9 24-20.9 54-34.5 96.5-34.5 25.5 0 41.2 10.2 46.4 29.8 4.4 16.3 1.6 36.4 1.6 36.4-3 15.5 9.3 29.6 25 28.8 24.7 0 72.3 5.2 73.2 49.1 0 19-5.2 29.9-13 38.6-27.6 27.6-77.1 27.4-84.6 27.4-44.8 0.2-115.9 0.1-169.2 0.1-32.8-0.5-32.8 49 0 48.5 54.2-0.1 119.1 0.2 169.8-0.1 56.2-1.7 93.7-14.5 120.3-43.6 15.3-17.2 25.2-41.7 25.2-70.9 0-54.6-39.1-90.4-98.1-95.5-0.1-9.7-0.3-19.6-3.5-31.9-12.5-46.1-51.7-65.2-93.2-65.2z" fill="#444852" p-id="1610"></path><path d="M419.6 475.4c-23.6 0.8-36.4 27.9-22.1 46.7l64.5 89h-40.8c-39.3-0.6-39.3 58.7 0 58.1h57.7V708h-57.7c-39.3-0.6-39.3 58.7 0 58.1h57.7v28.6c-0.6 39.3 58.7 39.3 58.1 0V766h57.7c39.3 0.6 39.3-58.7 0-58.1H537v-38.8h57.7c39.3 0.6 39.3-58.7 0-58.1h-40.8l64.5-89c14.2-19 0.8-46.2-22.9-46.5-9.6-0.1-18.6 4.5-24.1 12.3L508 575.3l-63.4-87.5c-5.7-8.1-15.1-12.8-25-12.4z" fill="#FFFFFF" p-id="1611"></path></svg>